#!OML:ASF E:\motion texture\Top Level 1\Subject 1\Session 1\male.ASF
:FULLY-SPECIFIED
:DEGREES
159
root 10.3131 17.6494 7.01908 13.8132 -85.8253 -5.79242
lowerback -1.7438 -0.687456 -2.89615
upperback -3.42993 -0.963414 0.132636
thorax -2.49755 -0.428965 1.76361
lowerneck -11.118 -5.28711 -8.16706
upperneck 14.4685 -5.92047 0.491383
head 6.50654 -3.30244 0.942077
rclavicle -9.67522e-016 2.5842e-015
rhumerus 1.14163 2.95753 -66.5708
rradius 108.646
rwrist 6.68562
rhand -26.2291 -19.5775
rfingers 7.12502
rthumb 0.324487 -49.557
lclavicle -9.67522e-016 2.5842e-015
lhumerus 2.22186 -11.7572 81.9975
lradius 101.627
lwrist -22.9813
lhand -24.7419 14.9746
lfingers 7.12502
lthumb 1.76088 44.947
rfemur -32.8583 -0.968661 16.6007
rtibia 9.90825
rfoot -5.82433 -22.2302
rtoes 1.6705
lfemur 1.28893 -3.03573 -20.3483
ltibia 11.8321
lfoot -15.4439 -2.5039
ltoes -0.306476
160
root 10.1691 17.6293 7.00538 12.8666 -85.9064 -4.74268
lowerback -1.85201 -0.685092 -2.90717
upperback -3.46375 -0.959197 0.111208
thorax -2.47215 -0.427603 1.74653
lowerneck -10.9953 -5.34478 -8.18413
upperneck 14.39 -6.0095 0.50016
head 6.46506 -3.34458 0.943069
rclavicle 3.89727e-015 -1.39149e-015
rhumerus 1.75745 5.13847 -66.0887
rradius 107.939
rwrist 7.61724
rhand -25.6647 -18.5624
rfingers 7.12502
rthumb 0.869627 -48.5403
lclavicle 3.89727e-015 -1.39149e-015
lhumerus 2.735 -12.9804 81.8515
lradius 100.839
lwrist -22.927
lhand -23.9313 14.4176
lfingers 7.12502
lthumb 2.54372 44.3822
rfemur -33.0402 -0.797253 16.63
rtibia 9.73744
rfoot -6.34778 -22.1682
rtoes 1.07215
lfemur 1.64293 -2.96076 -20.3815
ltibia 11.9771
lfoot -15.6841 -2.4998
ltoes -0.876384
161
root 10.0235 17.6103 6.99135 11.8259 -85.9869 -3.62153
lowerback -1.91654 -0.684661 -2.90586
upperback -3.51453 -0.959654 0.0850256
thorax -2.48883 -0.428242 1.71844
lowerneck -10.8602 -5.39067 -8.19488
upperneck 14.3343 -6.08394 0.499226
head 6.42768 -3.38094 0.941518
rclavicle 4.95253e-015 -8.94531e-015
rhumerus 2.35652 7.3242 -65.5958
rradius 107.107
rwrist 8.49083
rhand -25.0324 -17.6138
rfingers 7.12502
rthumb 1.48025 -47.5884
lclavicle 4.95253e-015 -8.94531e-015
lhumerus 3.16974 -14.2132 81.6907
lradius 99.988
lwrist -22.8014
lhand -22.9998 13.8228
lfingers 7.12502
lthumb 3.44325 43.7748
rfemur -33.3241 -1.03464 16.888
rtibia 10.0917
rfoot -6.60322 -21.7654
rtoes 0.716714
lfemur 2.00659 -2.9177 -20.4229
ltibia 12.1592
lfoot -15.9097 -2.4858
ltoes -1.5498
162
root 9.87628 17.5924 6.97655 10.8707 -86.0528 -2.61122
lowerback -1.94194 -0.694701 -2.89675
upperback -3.57257 -0.97526 0.071894
thorax -2.53414 -0.435951 1.70004
lowerneck -10.721 -5.42233 -8.22203
upperneck 14.2898 -6.13682 0.496969
head 6.39286 -3.40831 0.944221
rclavicle -3.42865e-015 -6.95746e-015
rhumerus 2.96435 9.50491 -65.0969
rradius 106.17
rwrist 9.19625
rhand -24.3097 -16.7765
rfingers 7.12502
rthumb 2.17822 -46.7452
lclavicle -3.42865e-015 -6.95746e-015
lhumerus 3.5227 -15.4271 81.5359
lradius 99.0715
lwrist -22.6652
lhand -22.114 13.1781
lfingers 7.12502
lthumb 4.29872 43.1145
rfemur -33.6517 -1.49982 17.3012
rtibia 10.8466
rfoot -6.57605 -21.159
rtoes 0.725645
lfemur 2.37555 -2.90358 -20.4483
ltibia 12.3861
lfoot -16.1173 -2.48585
ltoes -2.30759
163
root 9.72644 17.5761 6.9608 9.86833 -86.1 -1.58494
lowerback -1.93389 -0.711534 -2.89184
upperback -3.63476 -1.00091 0.0659907
thorax -2.60189 -0.448061 1.69196
lowerneck -10.5871 -5.44475 -8.233
upperneck 14.2743 -6.17624 0.470394
head 6.36631 -3.43106 0.937475
rclavicle -3.34071e-015 1.63003e-014
rhumerus 3.56297 11.6453 -64.5975
rradius 105.141
rwrist 9.70388
rhand -23.446 -16.0219
rfingers 7.12502
rthumb 3.01239 -45.9803
lclavicle -3.34071e-015 1.63003e-014
lhumerus 3.80312 -16.6207 81.4116
lradius 98.0658
lwrist -22.5306
lhand -21.3211 12.5473
lfingers 7.12502
lthumb 5.06433 42.4667
rfemur -33.9549 -2.02392 17.7643
rtibia 11.8583
rfoot -6.32788 -20.4857
rtoes 0.989631
lfemur 2.75799 -2.91751 -20.4665
ltibia 12.6606
lfoot -16.3064 -2.51075
ltoes -3.13034
